<?xml version="1.0" standalone="no"?>
<!DOCTYPE svg PUBLIC "-//W3C//DTD SVG 20010904//EN"
 "http://www.w3.org/TR/2001/REC-SVG-20010904/DTD/svg10.dtd">
<svg version="1.0" xmlns="http://www.w3.org/2000/svg"
 width="40.000000pt" height="40.000000pt" viewBox="0 0 40.000000 40.000000"
 preserveAspectRatio="xMidYMid meet">

<g transform="translate(0.000000,40.000000) scale(0.100000,-0.100000)"
fill="#000000" stroke="none">
<path d="M141 373 c-17 -19 -15 -20 46 -19 37 1 58 -3 60 -11 4 -10 -12 -13
-59 -13 -76 0 -91 -8 -86 -46 l3 -29 78 0 c47 0 76 -4 73 -10 -2 -5 -20 -9
-41 -7 -56 5 -85 -5 -85 -28 0 -11 5 -20 10 -20 6 0 10 7 10 15 0 24 64 20 81
-5 25 -36 40 -10 42 71 1 96 -10 114 -74 114 -26 0 -52 -5 -58 -12z m-1 -73
c0 -5 -7 -10 -15 -10 -8 0 -15 5 -15 10 0 6 7 10 15 10 8 0 15 -4 15 -10z m90
0 c0 -5 -7 -10 -15 -10 -8 0 -15 5 -15 10 0 6 7 10 15 10 8 0 15 -4 15 -10z"/>
<path d="M153 172 c-3 -6 -2 -23 1 -37 5 -21 12 -25 45 -25 22 0 41 5 44 13 3
9 -7 11 -39 8 -35 -2 -44 0 -44 13 0 12 10 16 35 16 23 0 35 5 35 14 0 17 -70
16 -77 -2z"/>
<path d="M76 135 c-3 -8 -12 -15 -20 -15 -18 0 -26 -22 -26 -75 l0 -43 170 0
170 0 0 43 c0 53 -8 75 -26 75 -8 0 -17 7 -20 15 -10 24 -49 18 -64 -9 -23
-45 -97 -45 -120 0 -15 27 -54 33 -64 9z m94 -100 c-13 -14 -26 -23 -28 -20
-7 7 29 45 41 45 6 0 0 -11 -13 -25z m78 -15 c7 -21 -20 -6 -37 21 l-16 24 24
-16 c14 -9 27 -22 29 -29z"/>
</g>
</svg>
